<svg width="49" height="50" viewBox="0 0 49 50" fill="none" xmlns="http://www.w3.org/2000/svg">
<g clip-path="url(#clip0_3566_55)">
<path d="M15 37.914C15 40.6754 17.2386 42.914 20 42.914H42.864C45.6254 42.914 47.864 40.6754 47.864 37.914V5.00001C47.864 2.23858 45.6254 0 42.864 0H20C17.2386 0 15 2.23858 15 5V37.914Z" fill="#581C87" fill-opacity="0.79"/>
<path d="M5 43.914C5 46.6754 7.23858 48.914 10 48.914H32.864C35.6254 48.914 37.864 46.6754 37.864 43.914V11C37.864 8.23857 35.6254 6 32.864 6H10C7.23857 6 5 8.23858 5 11V43.914Z" fill="#581C87" fill-opacity="0.79"/>
<path d="M16.002 37.976C14.584 37.976 13.537 37.672 12.87 37.066C12.203 36.458 11.874 35.463 11.874 34.088V30.698C11.874 29.179 11.249 28.42 10 28.42V26.556C11.25 26.556 11.874 25.755 11.874 24.161V20.981C11.874 19.623 12.212 18.619 12.887 17.97C13.562 17.32 14.601 17 15.994 17V18.864C14.744 18.864 14.12 19.581 14.12 21.006V24.034C14.12 25.856 13.495 26.994 12.246 27.45V27.5C13.495 27.905 14.12 29.019 14.12 30.84V33.852C14.12 34.628 14.263 35.202 14.55 35.564C14.837 35.926 15.318 36.104 15.994 36.104V37.976H16.002ZM26.942 36.111C27.618 36.111 28.107 35.934 28.386 35.571C28.673 35.209 28.816 34.644 28.816 33.859V30.849C28.816 29.027 29.441 27.913 30.691 27.509V27.458C29.441 27.002 28.817 25.864 28.817 24.042V21.014C28.817 19.58 28.192 18.872 26.942 18.872V17.007C28.344 17.007 29.374 17.327 30.057 17.977C30.741 18.626 31.07 19.63 31.07 20.987V24.167C31.07 25.762 31.695 26.563 32.945 26.563V28.427C31.695 28.427 31.07 29.186 31.07 30.704V34.094C31.07 35.469 30.741 36.464 30.074 37.072C29.407 37.679 28.369 37.982 26.942 37.982V36.111Z" fill="#E9EEE4"/>
</g>
<defs>
<clipPath id="clip0_3566_55">
<rect width="48" height="49" fill="white" transform="translate(0.0905762 0.348145)"/>
</clipPath>
</defs>
</svg>
